<mxfile host="Electron" modified="2024-04-17T15:39:43.550Z" agent="Mozilla/5.0 (X11; Linux x86_64) AppleWebKit/537.36 (KHTML, like Gecko) draw.io/24.2.5 Chrome/120.0.6099.109 Electron/28.1.0 Safari/537.36" etag="cnbj32o3v4CxDIKuu_BR" version="24.2.5" type="device">
  <diagram name="Page-1" id="snfDs3Cnp3xeKa9i0klh">
    <mxGraphModel dx="819" dy="497" grid="1" gridSize="10" guides="1" tooltips="1" connect="1" arrows="1" fold="1" page="1" pageScale="1" pageWidth="850" pageHeight="1100" math="0" shadow="0">
      <root>
        <mxCell id="0" />
        <mxCell id="1" parent="0" />
        <mxCell id="EaRU0ahfUiJnMO3mqa6_-1" value="&lt;div style=&quot;font-size: 8px;&quot;&gt;&lt;pre style=&quot;font-family: &amp;quot;JetBrains Mono&amp;quot;, monospace;&quot;&gt;.LC0:&lt;br&gt;    .ascii &quot;i = %d\012\000&quot;&lt;br&gt;    .text&lt;br&gt;    .align 2&lt;br&gt;    .global    main&lt;br&gt;    .syntax unified&lt;br&gt;    .arm&lt;br&gt;    .fpu softvfp&lt;br&gt;    .type  main, %function&lt;br&gt;main:&lt;br&gt;    @ Function supports interworking.&lt;br&gt;    @ args = 0, pretend = 0, frame = 8&lt;br&gt;    @ frame_needed = 1, uses_anonymous_args = 0&lt;br&gt;    push   {fp, lr}&lt;br&gt;    add    fp, sp, #4&lt;br&gt;    sub    sp, sp, #8&lt;br&gt;    mov    r3, #0&lt;br&gt;    str    r3, [fp, #-8]&lt;br&gt;    b  .L3&lt;br&gt;.L4:&lt;br&gt;    ldr    r1, [fp, #-8]&lt;br&gt;    ldr    r0, .L7&lt;br&gt;    bl printf&lt;br&gt;    ldr    r3, [fp, #-8]&lt;br&gt;    add    r3, r3, #1&lt;br&gt;    str    r3, [fp, #-8]&lt;/pre&gt;&lt;/div&gt;" style="rounded=0;whiteSpace=wrap;html=1;dashed=1;align=left;perimeterSpacing=500;strokeWidth=1;spacingLeft=4;strokeColor=#000099;" vertex="1" parent="1">
          <mxGeometry x="80" y="80" width="240" height="260" as="geometry" />
        </mxCell>
        <mxCell id="EaRU0ahfUiJnMO3mqa6_-2" value="" style="shape=flexArrow;endArrow=classic;html=1;rounded=0;fillColor=#008a00;strokeColor=#005700;" edge="1" parent="1">
          <mxGeometry width="50" height="50" relative="1" as="geometry">
            <mxPoint x="340" y="209.76" as="sourcePoint" />
            <mxPoint x="410" y="209.76" as="targetPoint" />
          </mxGeometry>
        </mxCell>
        <mxCell id="EaRU0ahfUiJnMO3mqa6_-3" value="&lt;div style=&quot;font-size: 8px;&quot;&gt;&lt;pre style=&quot;font-family: &amp;quot;JetBrains Mono&amp;quot;, monospace;&quot;&gt;&lt;span style=&quot;background-color: rgb(204, 204, 0);&quot;&gt;.LC0:&lt;/span&gt;&lt;br&gt;    &lt;span style=&quot;background-color: rgb(255, 102, 102);&quot;&gt;.ascii &lt;/span&gt;&lt;span style=&quot;background-color: rgb(51, 255, 51);&quot;&gt;&quot;i = %d\012\000&quot;&lt;/span&gt;&lt;br&gt;    &lt;span style=&quot;background-color: rgb(255, 102, 102);&quot;&gt;.text&lt;/span&gt;&lt;br&gt;    &lt;span style=&quot;background-color: rgb(255, 102, 102);&quot;&gt;.align 2&lt;/span&gt;&lt;br&gt;    &lt;span style=&quot;background-color: rgb(255, 102, 102);&quot;&gt;.global    &lt;/span&gt;&lt;span style=&quot;background-color: rgb(204, 204, 0);&quot;&gt;main&lt;/span&gt;&lt;br&gt;    &lt;span style=&quot;background-color: rgb(255, 102, 102);&quot;&gt;.syntax unified&lt;/span&gt;&lt;br&gt;    &lt;span style=&quot;background-color: rgb(255, 102, 102);&quot;&gt;.arm&lt;/span&gt;&lt;br&gt;    &lt;span style=&quot;background-color: rgb(255, 102, 102);&quot;&gt;.fpu softvfp&lt;/span&gt;&lt;br&gt;    &lt;span style=&quot;background-color: rgb(255, 102, 102);&quot;&gt;.type  &lt;/span&gt;&lt;span style=&quot;background-color: rgb(204, 204, 0);&quot;&gt;main, %function&lt;/span&gt;&lt;br&gt;&lt;span style=&quot;background-color: rgb(204, 204, 0);&quot;&gt;main:&lt;/span&gt;&lt;br&gt;    @ Function supports interworking.&lt;br&gt;    @ args = 0, pretend = 0, frame = 8&lt;br&gt;    @ frame_needed = 1, uses_anonymous_args = 0&lt;br&gt;    &lt;span style=&quot;background-color: rgb(255, 102, 102);&quot;&gt;push   {&lt;/span&gt;&lt;span style=&quot;background-color: rgb(204, 204, 204);&quot;&gt;fp&lt;/span&gt;&lt;span style=&quot;background-color: rgb(255, 102, 102);&quot;&gt;, &lt;/span&gt;&lt;span style=&quot;background-color: rgb(204, 204, 204);&quot;&gt;lr&lt;/span&gt;&lt;span style=&quot;background-color: rgb(255, 102, 102);&quot;&gt;}&lt;/span&gt;&lt;br&gt;    &lt;span style=&quot;background-color: rgb(255, 102, 102);&quot;&gt;add    &lt;/span&gt;&lt;span style=&quot;background-color: rgb(204, 204, 204);&quot;&gt;fp&lt;/span&gt;&lt;span style=&quot;background-color: rgb(255, 102, 102);&quot;&gt;, &lt;/span&gt;&lt;span style=&quot;background-color: rgb(204, 204, 204);&quot;&gt;sp&lt;/span&gt;&lt;span style=&quot;background-color: rgb(255, 102, 102);&quot;&gt;, &lt;/span&gt;&lt;span style=&quot;background-color: rgb(153, 255, 204);&quot;&gt;#4&lt;/span&gt;&lt;br&gt;    &lt;span style=&quot;background-color: rgb(255, 102, 102);&quot;&gt;sub    &lt;/span&gt;&lt;span style=&quot;background-color: rgb(204, 204, 204);&quot;&gt;sp&lt;/span&gt;&lt;span style=&quot;background-color: rgb(255, 102, 102);&quot;&gt;, &lt;/span&gt;&lt;span style=&quot;background-color: rgb(204, 204, 204);&quot;&gt;sp&lt;/span&gt;&lt;span style=&quot;background-color: rgb(255, 102, 102);&quot;&gt;, &lt;/span&gt;&lt;span style=&quot;background-color: rgb(153, 255, 204);&quot;&gt;#8&lt;/span&gt;&lt;br&gt;    &lt;span style=&quot;background-color: rgb(255, 102, 102);&quot;&gt;mov    &lt;/span&gt;&lt;span style=&quot;background-color: rgb(204, 204, 204);&quot;&gt;r3&lt;/span&gt;&lt;span style=&quot;background-color: rgb(255, 102, 102);&quot;&gt;, &lt;/span&gt;&lt;span style=&quot;background-color: rgb(153, 255, 204);&quot;&gt;#0&lt;/span&gt;&lt;br&gt;    &lt;span style=&quot;background-color: rgb(255, 102, 102);&quot;&gt;str    &lt;/span&gt;&lt;span style=&quot;background-color: rgb(204, 204, 204);&quot;&gt;r3&lt;/span&gt;&lt;span style=&quot;background-color: rgb(255, 102, 102);&quot;&gt;, &lt;/span&gt;&lt;span style=&quot;background-color: rgb(102, 102, 255);&quot;&gt;[fp, &lt;/span&gt;&lt;span style=&quot;background-color: rgb(153, 255, 204);&quot;&gt;#-8&lt;/span&gt;&lt;span style=&quot;background-color: rgb(102, 102, 255);&quot;&gt;]&lt;/span&gt;&lt;br&gt;    &lt;span style=&quot;background-color: rgb(255, 102, 102);&quot;&gt;b  &lt;/span&gt;&lt;span style=&quot;background-color: rgb(204, 204, 0);&quot;&gt;.L3&lt;/span&gt;&lt;span style=&quot;background-color: rgb(255, 0, 0);&quot;&gt;&lt;br&gt;&lt;/span&gt;&lt;span style=&quot;background-color: rgb(204, 204, 0);&quot;&gt;.L4:&lt;/span&gt;&lt;br&gt;    &lt;span style=&quot;background-color: rgb(255, 102, 102);&quot;&gt;ldr    &lt;/span&gt;&lt;span style=&quot;background-color: rgb(204, 204, 204);&quot;&gt;r1&lt;/span&gt;&lt;span style=&quot;background-color: rgb(255, 102, 102);&quot;&gt;, &lt;/span&gt;&lt;span style=&quot;background-color: rgb(102, 102, 255);&quot;&gt;[fp, &lt;/span&gt;&lt;span style=&quot;background-color: rgb(153, 255, 204);&quot;&gt;#-8&lt;/span&gt;&lt;span style=&quot;background-color: rgb(102, 102, 255);&quot;&gt;]&lt;/span&gt;&lt;br&gt;    &lt;span style=&quot;background-color: rgb(255, 102, 102);&quot;&gt;ldr    &lt;/span&gt;&lt;span style=&quot;background-color: rgb(204, 204, 204);&quot;&gt;r0&lt;/span&gt;&lt;span style=&quot;background-color: rgb(255, 102, 102);&quot;&gt;, &lt;/span&gt;&lt;span style=&quot;background-color: rgb(204, 204, 0);&quot;&gt;.L7&lt;/span&gt;&lt;br&gt;    &lt;span style=&quot;background-color: rgb(255, 102, 102);&quot;&gt;bl &lt;/span&gt;&lt;span style=&quot;background-color: rgb(204, 204, 0);&quot;&gt;printf&lt;/span&gt;&lt;br&gt;    &lt;span style=&quot;background-color: rgb(255, 102, 102);&quot;&gt;ldr    &lt;/span&gt;&lt;span style=&quot;background-color: rgb(204, 204, 204);&quot;&gt;r3&lt;/span&gt;&lt;span style=&quot;background-color: rgb(255, 102, 102);&quot;&gt;, &lt;/span&gt;&lt;span style=&quot;background-color: rgb(102, 102, 255);&quot;&gt;[fp, &lt;/span&gt;&lt;span style=&quot;background-color: rgb(153, 255, 204);&quot;&gt;#-8&lt;/span&gt;&lt;span style=&quot;background-color: rgb(102, 102, 255);&quot;&gt;]&lt;/span&gt;&lt;br&gt;    &lt;span style=&quot;background-color: rgb(255, 102, 102);&quot;&gt;add    &lt;/span&gt;&lt;span style=&quot;background-color: rgb(204, 204, 204);&quot;&gt;r3&lt;/span&gt;&lt;span style=&quot;background-color: rgb(255, 102, 102);&quot;&gt;, &lt;/span&gt;&lt;span style=&quot;background-color: rgb(204, 204, 204);&quot;&gt;r3&lt;/span&gt;&lt;span style=&quot;background-color: rgb(255, 102, 102);&quot;&gt;, &lt;/span&gt;&lt;span style=&quot;background-color: rgb(153, 255, 204);&quot;&gt;#1&lt;/span&gt;&lt;br&gt;    &lt;span style=&quot;background-color: rgb(255, 102, 102);&quot;&gt;str    &lt;/span&gt;&lt;span style=&quot;background-color: rgb(204, 204, 204);&quot;&gt;r3&lt;/span&gt;&lt;span style=&quot;background-color: rgb(255, 102, 102);&quot;&gt;, &lt;/span&gt;&lt;span style=&quot;background-color: rgb(102, 102, 255);&quot;&gt;[fp, &lt;/span&gt;&lt;span style=&quot;background-color: rgb(153, 255, 204);&quot;&gt;#-8&lt;/span&gt;&lt;span style=&quot;background-color: rgb(102, 102, 255);&quot;&gt;]&lt;/span&gt;&lt;/pre&gt;&lt;/div&gt;" style="rounded=0;whiteSpace=wrap;html=1;dashed=1;align=left;perimeterSpacing=500;strokeWidth=1;spacingLeft=4;strokeColor=#000099;" vertex="1" parent="1">
          <mxGeometry x="425" y="80" width="240" height="260" as="geometry" />
        </mxCell>
        <mxCell id="EaRU0ahfUiJnMO3mqa6_-5" value="" style="whiteSpace=wrap;html=1;aspect=fixed;fillColor=#CCCC00;" vertex="1" parent="1">
          <mxGeometry x="680" y="80" width="10" height="10" as="geometry" />
        </mxCell>
        <mxCell id="EaRU0ahfUiJnMO3mqa6_-6" value="" style="whiteSpace=wrap;html=1;aspect=fixed;fillColor=#33FF33;" vertex="1" parent="1">
          <mxGeometry x="680" y="100" width="10" height="10" as="geometry" />
        </mxCell>
        <mxCell id="EaRU0ahfUiJnMO3mqa6_-8" value="Location" style="text;html=1;align=center;verticalAlign=middle;resizable=0;points=[];autosize=1;strokeColor=none;fillColor=none;fontSize=10;spacing=0;" vertex="1" parent="1">
          <mxGeometry x="685" y="75" width="60" height="20" as="geometry" />
        </mxCell>
        <mxCell id="EaRU0ahfUiJnMO3mqa6_-9" value="String Literal" style="text;html=1;align=center;verticalAlign=middle;resizable=0;points=[];autosize=1;strokeColor=none;fillColor=none;fontSize=10;spacing=0;" vertex="1" parent="1">
          <mxGeometry x="685" y="95" width="80" height="20" as="geometry" />
        </mxCell>
        <mxCell id="EaRU0ahfUiJnMO3mqa6_-13" value="" style="whiteSpace=wrap;html=1;aspect=fixed;fillColor=#FF6666;" vertex="1" parent="1">
          <mxGeometry x="680" y="120" width="10" height="10" as="geometry" />
        </mxCell>
        <mxCell id="EaRU0ahfUiJnMO3mqa6_-14" value="" style="whiteSpace=wrap;html=1;aspect=fixed;fillColor=#6666FF;" vertex="1" parent="1">
          <mxGeometry x="680" y="140" width="10" height="10" as="geometry" />
        </mxCell>
        <mxCell id="EaRU0ahfUiJnMO3mqa6_-15" value="Instruction" style="text;html=1;align=center;verticalAlign=middle;resizable=0;points=[];autosize=1;strokeColor=none;fillColor=none;fontSize=10;spacing=0;" vertex="1" parent="1">
          <mxGeometry x="685" y="115" width="70" height="20" as="geometry" />
        </mxCell>
        <mxCell id="EaRU0ahfUiJnMO3mqa6_-16" value="Address" style="text;html=1;align=center;verticalAlign=middle;resizable=0;points=[];autosize=1;strokeColor=none;fillColor=none;fontSize=10;spacing=0;" vertex="1" parent="1">
          <mxGeometry x="685" y="135" width="60" height="20" as="geometry" />
        </mxCell>
        <mxCell id="EaRU0ahfUiJnMO3mqa6_-17" value="" style="whiteSpace=wrap;html=1;aspect=fixed;fillColor=#99FFCC;direction=south;" vertex="1" parent="1">
          <mxGeometry x="680" y="160" width="10" height="10" as="geometry" />
        </mxCell>
        <mxCell id="EaRU0ahfUiJnMO3mqa6_-18" value="Integer Literal" style="text;html=1;align=center;verticalAlign=middle;resizable=0;points=[];autosize=1;strokeColor=none;fillColor=none;fontSize=10;spacing=0;" vertex="1" parent="1">
          <mxGeometry x="685" y="155" width="80" height="20" as="geometry" />
        </mxCell>
        <mxCell id="EaRU0ahfUiJnMO3mqa6_-19" value="" style="whiteSpace=wrap;html=1;aspect=fixed;fillColor=#CCCCCC;direction=south;" vertex="1" parent="1">
          <mxGeometry x="680" y="180" width="10" height="10" as="geometry" />
        </mxCell>
        <mxCell id="EaRU0ahfUiJnMO3mqa6_-21" value="Register" style="text;html=1;align=center;verticalAlign=middle;resizable=0;points=[];autosize=1;strokeColor=none;fillColor=none;fontSize=10;spacing=0;" vertex="1" parent="1">
          <mxGeometry x="685" y="175" width="60" height="20" as="geometry" />
        </mxCell>
      </root>
    </mxGraphModel>
  </diagram>
</mxfile>
